<?xml version="1.0" encoding="UTF-8"?>
<svg version="1.1" xmlns="http://www.w3.org/2000/svg" width="228" height="217">
<path d="M0 0 C75.24 0 150.48 0 228 0 C228 71.61 228 143.22 228 217 C152.76 217 77.52 217 0 217 C0 145.39 0 73.78 0 0 Z " fill="#FBFBFC" transform="translate(0,0)"/>
<path d="M0 0 C18.51427886 -0.38660907 18.51427886 -0.38660907 27 2 C28.175625 2.29519531 29.35125 2.59039062 30.5625 2.89453125 C55.24242073 9.49344054 76.76994503 27.23526191 89.5 49.25 C93.01019624 55.70933653 96 61.57647042 96 69 C96.66 69 97.32 69 98 69 C102.60129987 90.14406847 103.76856138 114.0532279 94 134 C93.51789063 135.07378906 93.03578125 136.14757812 92.5390625 137.25390625 C84.10886522 155.28186334 68.82780388 175.1763905 49.61328125 182.24609375 C48.75089844 182.49488281 47.88851562 182.74367187 47 183 C47 183.66 47 184.32 47 185 C30.72625599 190.82835779 17.48528602 194 0 194 C0 162.32 0 130.64 0 98 C10.89 98 21.78 98 33 98 C33 102.95 33 107.9 33 113 C27.06 113 21.12 113 15 113 C15 134.45 15 155.9 15 178 C26.1972408 175.80599173 26.1972408 175.80599173 36.0234375 171.91796875 C38.93632302 170.56514643 41.89313316 169.7932426 45 169 C45 168.34 45 167.68 45 167 C47.01171875 165.6328125 47.01171875 165.6328125 49.6875 164.125 C63.10307332 156.2866875 71.70441294 144.24280284 78.3125 130.375 C78.65015381 129.67060791 78.98780762 128.96621582 79.33569336 128.24047852 C88.30317352 108.80148597 86.69441482 85.15656309 80.08984375 65.2578125 C79.18864479 63.06528516 78.17414241 61.05866302 77 59 C76.53078125 58.15695313 76.0615625 57.31390625 75.578125 56.4453125 C65.58665671 39.65013009 50.02371818 25.50686579 31 20 C31 19.34 31 18.68 31 18 C20.68654553 16.46360583 10.35936415 15.17891069 0 14 C0 9.38 0 4.76 0 0 Z " fill="#0879AE" transform="translate(112,11)"/>
<path d="M0 0 C0 15.18 0 30.36 0 46 C-2.97 46.99 -5.94 47.98 -9 49 C-23.18213962 54.59123202 -32.22605697 65.16063613 -38.23828125 78.859375 C-40.34445011 84.77824955 -40.18340367 90.67315019 -40.1875 96.875 C-40.20586914 98.32712891 -40.20586914 98.32712891 -40.22460938 99.80859375 C-40.25047905 112.48473659 -35.51415607 123.64081839 -26.72436523 132.78417969 C-22.40940159 137.23624466 -22.40940159 137.23624466 -17 140 C-17.02495914 133.09879829 -17.43974637 128.70912565 -22.375 123.73828125 C-30.38474322 115.17016651 -31.63421144 104.24678373 -31.3046875 93.0390625 C-30.62793215 81.16508231 -25.08405066 72.51916924 -16.43359375 64.671875 C-7.17491007 57 -7.17491007 57 -1 57 C-1 61.62 -1 66.24 -1 71 C-2.175625 71.474375 -3.35125 71.94875 -4.5625 72.4375 C-10.88136968 75.60254662 -14.66649345 80.92713708 -17.4375 87.3125 C-18.70806835 95.64178143 -18.93578189 103.39822772 -15 111 C-14.6596875 111.68964844 -14.319375 112.37929687 -13.96875 113.08984375 C-11.7382021 117.13647964 -10.07514415 118.97561285 -5.93823242 121.05859375 C-2.23604925 123.34895857 -2.23604925 123.34895857 -1.29182434 125.95320129 C-1.0737987 128.34516327 -1.09901495 130.62058108 -1.21875 133.01953125 C-1.23006958 133.87810226 -1.24138916 134.73667328 -1.25305176 135.6212616 C-1.2977125 138.35397984 -1.39803686 141.08137882 -1.5 143.8125 C-1.54014118 145.6685438 -1.57664086 147.52467017 -1.609375 149.38085938 C-1.69741201 153.92261122 -1.83537281 158.46040515 -2 163 C-16.48169688 160.48401334 -27.99488986 153.79498726 -38 143 C-38.53109375 142.46246094 -39.0621875 141.92492187 -39.609375 141.37109375 C-46.59224592 133.97110443 -51.99327288 125.23505902 -53 115 C-53.66 115 -54.32 115 -55 115 C-57.897417 104.23816541 -58.40839824 92.65422387 -55 82 C-54.50113281 80.13794922 -54.50113281 80.13794922 -53.9921875 78.23828125 C-48.77366976 59.48193832 -37.37528862 46.77594679 -21.00390625 36.6171875 C-18 35 -18 35 -15 35 C-15 29.72 -15 24.44 -15 19 C-25.61061511 22.83161101 -33.30595461 26.72276201 -42 34 C-42.71542969 34.55300781 -43.43085937 35.10601562 -44.16796875 35.67578125 C-53.34966835 43.06145977 -62.33032226 54.38054546 -65 66 C-65.66 66 -66.32 66 -67 66 C-67.12117188 66.66644531 -67.24234375 67.33289063 -67.3671875 68.01953125 C-69.18359375 78.00976562 -69.18359375 78.00976562 -71 88 C-75.95 88 -80.9 88 -86 88 C-84.84189505 63.76665389 -74.04376503 42.29790228 -56.47705078 25.54785156 C-44.17966679 14.46652049 -31.4561534 7.36153109 -15.5546875 2.796875 C-13.09037001 2.24519326 -13.09037001 2.24519326 -12 1 C-7.89716722 0.28989433 -4.18274291 0 0 0 Z " fill="#4A4C4C" transform="translate(105,11)"/>
<path d="M0 0 C19.99646772 0.06859852 37.7848192 8.01497387 51.92260742 22.22314453 C58.72629369 29.45786901 65.89930806 39.87549163 66.33984375 50.0078125 C66.29859375 50.7090625 66.25734375 51.4103125 66.21484375 52.1328125 C66.87484375 52.1328125 67.53484375 52.1328125 68.21484375 52.1328125 C72.824075 70.56973751 67.66198982 89.24639486 58.21484375 105.1328125 C49.67027391 118.17635993 37.34708379 126.18495459 23.21484375 132.1328125 C22.22484375 132.1328125 21.23484375 132.1328125 20.21484375 132.1328125 C20.07982481 129.69347025 19.98080478 127.26157146 19.90234375 124.8203125 C19.86044922 124.13001953 19.81855469 123.43972656 19.77539062 122.72851562 C19.7265625 120.70703125 19.7265625 120.70703125 20.21484375 117.1328125 C22.40234375 115.34765625 22.40234375 115.34765625 25.21484375 114.1328125 C39.5791498 105.84488703 47.01227588 95.74051612 52.21484375 80.1328125 C55.57160132 66.70578221 53.16643863 52.06802311 46.328125 40.24609375 C38.48903753 28.69756748 26.82956634 20.40309985 13.21484375 17.1328125 C9.21988528 16.62625298 5.2299648 16.45024634 1.20703125 16.30859375 C-1.78515625 16.1328125 -1.78515625 16.1328125 -2.78515625 15.1328125 C-2.88424927 12.80121195 -2.91486129 10.46651308 -2.91015625 8.1328125 C-2.91273437 6.8540625 -2.9153125 5.5753125 -2.91796875 4.2578125 C-2.7456934 0.20427478 -2.7456934 0.20427478 0 0 Z " fill="#494B4B" transform="translate(113.78515625,39.8671875)"/>
<path d="M0 0 C4.95 0 9.9 0 15 0 C15.268125 2.26875 15.53625 4.5375 15.8125 6.875 C18.07177037 23.90909435 25.46202439 38.23458017 37 51 C37.69738281 51.77859375 38.39476562 52.5571875 39.11328125 53.359375 C46.45781884 61.13440946 54.80114819 66.72867017 65 70 C65 70.66 65 71.32 65 72 C65.92619141 72.18175781 65.92619141 72.18175781 66.87109375 72.3671875 C72.5999224 73.50074568 78.30352707 74.71369966 84 76 C84 80.95 84 85.9 84 91 C68.43869328 89.76742125 53.38331243 84.82536951 41 75 C40.14664063 74.35675781 39.29328125 73.71351563 38.4140625 73.05078125 C27.22154695 64.31936505 16.99881154 53.44233162 10 41 C10 39.68 10 38.36 10 37 C9.34 37 8.68 37 8 37 C3.39153055 24.63828791 -0.43814322 13.36336835 0 0 Z " fill="#0879AE" transform="translate(19,113)"/>
<path d="M0 0 C5.16064403 0.01770375 10.10706672 0.38986311 15.21484375 1.1328125 C15.21484375 1.4628125 15.21484375 1.7928125 15.21484375 2.1328125 C9.93484375 2.1328125 4.65484375 2.1328125 -0.78515625 2.1328125 C-0.78515625 6.4228125 -0.78515625 10.7128125 -0.78515625 15.1328125 C2.51484375 15.1328125 5.81484375 15.1328125 9.21484375 15.1328125 C9.21484375 15.4628125 9.21484375 15.7928125 9.21484375 16.1328125 C7.40242323 16.15968529 5.58989142 16.17914965 3.77734375 16.1953125 C2.76800781 16.20691406 1.75867188 16.21851562 0.71875 16.23046875 C-1.78515625 16.1328125 -1.78515625 16.1328125 -2.78515625 15.1328125 C-2.88424927 12.80121195 -2.91486129 10.46651308 -2.91015625 8.1328125 C-2.91273437 6.8540625 -2.9153125 5.5753125 -2.91796875 4.2578125 C-2.7456934 0.20427478 -2.7456934 0.20427478 0 0 Z " fill="#86817D" transform="translate(113.78515625,39.8671875)"/>
<path d="M0 0 C0.66 0.33 1.32 0.66 2 1 C-3.28 6.28 -8.56 11.56 -14 17 C-14.66 16.67 -15.32 16.34 -16 16 C-14.27538679 14.07906479 -12.54557391 12.163278 -10.8125 10.25 C-10.32974609 9.71117187 -9.84699219 9.17234375 -9.34960938 8.6171875 C-6.43837795 5.41287909 -3.47293499 2.6158121 0 0 Z " fill="#E5E1DF" transform="translate(65,42)"/>
<path d="M0 0 C0.66 0.33 1.32 0.66 2 1 C-1.3 4.3 -4.6 7.6 -8 11 C-8 6.67750434 -5.85084926 5.11604454 -3 2 C-2.01 1.34 -1.02 0.68 0 0 Z " fill="#E2DEDC" transform="translate(99,83)"/>
<path d="M0 0 C3 2 3 2 3.6875 4.625 C3.790625 5.40875 3.89375 6.1925 4 7 C3.01 7.495 3.01 7.495 2 8 C0.66666667 6.66666667 -0.66666667 5.33333333 -2 4 C-1.34 2.68 -0.68 1.36 0 0 Z " fill="#147EAA" transform="translate(38,139)"/>
<path d="M0 0 C0.66 0.33 1.32 0.66 2 1 C-0.64 3.64 -3.28 6.28 -6 9 C-6.99 8.67 -7.98 8.34 -9 8 C-6.03 5.36 -3.06 2.72 0 0 Z " fill="#686563" transform="translate(56,30)"/>
<path d="M0 0 C-0.33 1.32 -0.66 2.64 -1 4 C-3.31 4 -5.62 4 -8 4 C-5.29881977 1.17603885 -4.05589853 0 0 0 Z " fill="#0073A4" transform="translate(121,200)"/>
<path d="M0 0 C0.66 0 1.32 0 2 0 C2 0.66 2 1.32 2 2 C2.66 2 3.32 2 4 2 C4 2.66 4 3.32 4 4 C2.35 4.66 0.7 5.32 -1 6 C-1.625 4.125 -1.625 4.125 -2 2 C-1.34 1.34 -0.68 0.68 0 0 Z " fill="#0073A3" transform="translate(49,171)"/>
<path d="M0 0 C0.99 0.33 1.98 0.66 3 1 C3 1.99 3 2.98 3 4 C1.35 4.33 -0.3 4.66 -2 5 C-2 3.68 -2 2.36 -2 1 C-1.34 0.67 -0.68 0.34 0 0 Z " fill="#0077A4" transform="translate(76,187)"/>
</svg>
